<mxfile host="app.diagrams.net" agent="Mozilla/5.0 (Windows NT 10.0; Win64; x64) AppleWebKit/537.36 (KHTML, like Gecko) Chrome/129.0.0.0 Safari/537.36 Edg/129.0.0.0" version="24.7.16">
  <diagram name="Page-1" id="2YBvvXClWsGukQMizWep">
    <mxGraphModel dx="2236" dy="749" grid="1" gridSize="10" guides="1" tooltips="1" connect="1" arrows="1" fold="1" page="1" pageScale="1" pageWidth="850" pageHeight="1100" math="0" shadow="0">
      <root>
        <mxCell id="0" />
        <mxCell id="1" parent="0" />
        <mxCell id="XeMGvkbNSDONiZZ8YMkS-39" value="" style="group;dropTarget=0;pointerEvents=0;" parent="1" vertex="1">
          <mxGeometry y="40" width="486" height="450" as="geometry" />
        </mxCell>
        <mxCell id="XeMGvkbNSDONiZZ8YMkS-40" value="Frontend" style="html=1;overflow=block;blockSpacing=1;whiteSpace=wrap;fontSize=13;spacing=3.8;rounded=1;absoluteArcSize=1;arcSize=12;strokeWidth=NaN;lucidId=yLybujtqe6.g;" parent="XeMGvkbNSDONiZZ8YMkS-39" vertex="1">
          <mxGeometry width="90" height="75" as="geometry" />
        </mxCell>
        <mxCell id="XeMGvkbNSDONiZZ8YMkS-41" value="Frontend" style="html=1;overflow=block;blockSpacing=1;whiteSpace=wrap;fontSize=13;spacing=3.8;rounded=1;absoluteArcSize=1;arcSize=12;strokeWidth=NaN;lucidId=yLyb7A-5pBFt;" parent="XeMGvkbNSDONiZZ8YMkS-39" vertex="1">
          <mxGeometry y="375" width="90" height="75" as="geometry" />
        </mxCell>
        <mxCell id="XeMGvkbNSDONiZZ8YMkS-42" value="Backend Routes" style="html=1;overflow=block;blockSpacing=1;whiteSpace=wrap;fontSize=13;spacing=3.8;rounded=1;absoluteArcSize=1;arcSize=12;strokeWidth=NaN;lucidId=yLybThRgqMk5;" parent="XeMGvkbNSDONiZZ8YMkS-39" vertex="1">
          <mxGeometry x="180" width="119" height="75" as="geometry" />
        </mxCell>
        <mxCell id="XeMGvkbNSDONiZZ8YMkS-43" value="Backend Routes" style="html=1;overflow=block;blockSpacing=1;whiteSpace=wrap;fontSize=13;spacing=3.8;rounded=1;absoluteArcSize=1;arcSize=12;strokeWidth=NaN;lucidId=yLybZQu3j~qN;" parent="XeMGvkbNSDONiZZ8YMkS-39" vertex="1">
          <mxGeometry x="180" y="375" width="119" height="75" as="geometry" />
        </mxCell>
        <mxCell id="XeMGvkbNSDONiZZ8YMkS-44" value="DB Service" style="html=1;overflow=block;blockSpacing=1;whiteSpace=wrap;fontSize=13;spacing=3.8;rounded=1;absoluteArcSize=1;arcSize=12;strokeWidth=NaN;lucidId=yLybxIM7KsqY;" parent="XeMGvkbNSDONiZZ8YMkS-39" vertex="1">
          <mxGeometry x="389" width="97" height="75" as="geometry" />
        </mxCell>
        <mxCell id="XeMGvkbNSDONiZZ8YMkS-45" value="DB Service" style="html=1;overflow=block;blockSpacing=1;whiteSpace=wrap;fontSize=13;spacing=3.8;rounded=1;absoluteArcSize=1;arcSize=12;strokeWidth=NaN;lucidId=yLyboMD-4pGB;" parent="XeMGvkbNSDONiZZ8YMkS-39" vertex="1">
          <mxGeometry x="389" y="375" width="97" height="75" as="geometry" />
        </mxCell>
        <mxCell id="XeMGvkbNSDONiZZ8YMkS-46" value="" style="html=1;jettySize=18;whiteSpace=wrap;fontSize=13;strokeColor=#3a414a;strokeOpacity=100;dashed=1;fixDash=1;strokeWidth=0.8;rounded=0;startArrow=none;endArrow=none;exitX=0.5;exitY=1;exitPerimeter=0;entryX=0.5;entryY=0;entryPerimeter=0;lucidId=yLybNGcgT2cb;" parent="XeMGvkbNSDONiZZ8YMkS-39" source="XeMGvkbNSDONiZZ8YMkS-40" target="XeMGvkbNSDONiZZ8YMkS-41" edge="1">
          <mxGeometry width="100" height="100" relative="1" as="geometry">
            <Array as="points" />
          </mxGeometry>
        </mxCell>
        <mxCell id="XeMGvkbNSDONiZZ8YMkS-47" value="" style="html=1;jettySize=18;whiteSpace=wrap;fontSize=13;strokeColor=#3a414a;strokeOpacity=100;dashed=1;fixDash=1;strokeWidth=0.8;rounded=0;startArrow=none;endArrow=none;exitX=0.5;exitY=1;exitPerimeter=0;entryX=0.5;entryY=0;entryPerimeter=0;lucidId=yLybLqWbrrgr;" parent="XeMGvkbNSDONiZZ8YMkS-39" source="XeMGvkbNSDONiZZ8YMkS-42" target="XeMGvkbNSDONiZZ8YMkS-43" edge="1">
          <mxGeometry width="100" height="100" relative="1" as="geometry">
            <Array as="points" />
          </mxGeometry>
        </mxCell>
        <mxCell id="XeMGvkbNSDONiZZ8YMkS-48" value="" style="html=1;jettySize=18;whiteSpace=wrap;fontSize=13;strokeColor=#3a414a;strokeOpacity=100;dashed=1;fixDash=1;strokeWidth=0.8;rounded=0;startArrow=none;endArrow=none;exitX=0.5;exitY=1;exitPerimeter=0;entryX=0.5;entryY=0;entryPerimeter=0;lucidId=yLybJHztlWzH;" parent="XeMGvkbNSDONiZZ8YMkS-39" source="XeMGvkbNSDONiZZ8YMkS-44" target="XeMGvkbNSDONiZZ8YMkS-45" edge="1">
          <mxGeometry width="100" height="100" relative="1" as="geometry">
            <Array as="points" />
          </mxGeometry>
        </mxCell>
        <mxCell id="XeMGvkbNSDONiZZ8YMkS-49" value="" style="html=1;jettySize=18;whiteSpace=wrap;fontSize=13;strokeColor=#3a414a;strokeOpacity=100;strokeWidth=0.8;rounded=0;startArrow=none;endArrow=block;endFill=1;lucidId=yLybN08AMlPJ;" parent="XeMGvkbNSDONiZZ8YMkS-39" edge="1">
          <mxGeometry width="100" height="100" relative="1" as="geometry">
            <Array as="points" />
            <mxPoint x="45" y="120" as="sourcePoint" />
            <mxPoint x="239" y="120" as="targetPoint" />
          </mxGeometry>
        </mxCell>
        <mxCell id="XeMGvkbNSDONiZZ8YMkS-50" value=" GET (&quot;/users/getuser&quot;, username)" style="text;html=1;resizable=0;labelBackgroundColor=default;align=center;verticalAlign=middle;fontStyle=1;fontColor=#3a414a;fontSize=10.8;" parent="XeMGvkbNSDONiZZ8YMkS-49" vertex="1">
          <mxGeometry relative="1" as="geometry">
            <mxPoint as="offset" />
          </mxGeometry>
        </mxCell>
        <mxCell id="XeMGvkbNSDONiZZ8YMkS-51" value="" style="html=1;jettySize=18;whiteSpace=wrap;fontSize=13;strokeColor=#3a414a;strokeOpacity=100;strokeWidth=0.8;rounded=0;startArrow=none;endArrow=block;endFill=1;lucidId=yLybG6YT7qrN;" parent="XeMGvkbNSDONiZZ8YMkS-39" edge="1">
          <mxGeometry width="100" height="100" relative="1" as="geometry">
            <Array as="points" />
            <mxPoint x="239" y="165" as="sourcePoint" />
            <mxPoint x="437" y="165" as="targetPoint" />
          </mxGeometry>
        </mxCell>
        <mxCell id="XeMGvkbNSDONiZZ8YMkS-52" value="get_user_async(username)" style="text;html=1;resizable=0;labelBackgroundColor=default;align=center;verticalAlign=middle;fontStyle=1;fontColor=#3a414a;fontSize=10.8;" parent="XeMGvkbNSDONiZZ8YMkS-51" vertex="1">
          <mxGeometry relative="1" as="geometry">
            <mxPoint as="offset" />
          </mxGeometry>
        </mxCell>
        <mxCell id="XeMGvkbNSDONiZZ8YMkS-53" value="" style="html=1;jettySize=18;whiteSpace=wrap;fontSize=13;strokeColor=#3a414a;strokeOpacity=100;dashed=1;fixDash=1;strokeWidth=0.8;rounded=0;startArrow=none;endArrow=block;endFill=1;lucidId=yLybynR~kUJE;" parent="XeMGvkbNSDONiZZ8YMkS-39" edge="1">
          <mxGeometry width="100" height="100" relative="1" as="geometry">
            <Array as="points" />
            <mxPoint x="437" y="210" as="sourcePoint" />
            <mxPoint x="239" y="210" as="targetPoint" />
          </mxGeometry>
        </mxCell>
        <mxCell id="XeMGvkbNSDONiZZ8YMkS-54" value="user object" style="text;html=1;resizable=0;labelBackgroundColor=default;align=center;verticalAlign=middle;fontStyle=1;fontColor=#3a414a;fontSize=10.8;" parent="XeMGvkbNSDONiZZ8YMkS-53" vertex="1">
          <mxGeometry relative="1" as="geometry">
            <mxPoint as="offset" />
          </mxGeometry>
        </mxCell>
        <mxCell id="XeMGvkbNSDONiZZ8YMkS-55" value="" style="html=1;jettySize=18;whiteSpace=wrap;fontSize=13;strokeColor=#3a414a;strokeOpacity=100;strokeWidth=0.8;rounded=0;startArrow=none;endArrow=block;endFill=1;lucidId=yLybpnWsDXOX;" parent="XeMGvkbNSDONiZZ8YMkS-39" edge="1">
          <mxGeometry width="100" height="100" relative="1" as="geometry">
            <Array as="points" />
            <mxPoint x="239" y="255" as="sourcePoint" />
            <mxPoint x="437" y="255" as="targetPoint" />
          </mxGeometry>
        </mxCell>
        <mxCell id="XeMGvkbNSDONiZZ8YMkS-56" value="get_chats_by_user_async(username)" style="text;html=1;resizable=0;labelBackgroundColor=default;align=center;verticalAlign=middle;fontStyle=1;fontColor=#3a414a;fontSize=10.8;" parent="XeMGvkbNSDONiZZ8YMkS-55" vertex="1">
          <mxGeometry relative="1" as="geometry">
            <mxPoint as="offset" />
          </mxGeometry>
        </mxCell>
        <mxCell id="XeMGvkbNSDONiZZ8YMkS-57" value="" style="html=1;jettySize=18;whiteSpace=wrap;fontSize=13;strokeColor=#3a414a;strokeOpacity=100;dashed=1;fixDash=1;strokeWidth=0.8;rounded=0;startArrow=none;endArrow=block;endFill=1;lucidId=yLybYU2.XZbE;" parent="XeMGvkbNSDONiZZ8YMkS-39" edge="1">
          <mxGeometry width="100" height="100" relative="1" as="geometry">
            <Array as="points" />
            <mxPoint x="437" y="300" as="sourcePoint" />
            <mxPoint x="239" y="300" as="targetPoint" />
          </mxGeometry>
        </mxCell>
        <mxCell id="XeMGvkbNSDONiZZ8YMkS-58" value="chats list" style="text;html=1;resizable=0;labelBackgroundColor=default;align=center;verticalAlign=middle;fontStyle=1;fontColor=#3a414a;fontSize=10.8;" parent="XeMGvkbNSDONiZZ8YMkS-57" vertex="1">
          <mxGeometry relative="1" as="geometry">
            <mxPoint as="offset" />
          </mxGeometry>
        </mxCell>
        <mxCell id="XeMGvkbNSDONiZZ8YMkS-59" value="" style="html=1;jettySize=18;whiteSpace=wrap;fontSize=13;strokeColor=#3a414a;strokeOpacity=100;dashed=1;fixDash=1;strokeWidth=0.8;rounded=0;startArrow=none;endArrow=block;endFill=1;lucidId=yLybSVLwyv2x;" parent="XeMGvkbNSDONiZZ8YMkS-39" edge="1">
          <mxGeometry width="100" height="100" relative="1" as="geometry">
            <Array as="points" />
            <mxPoint x="239" y="345" as="sourcePoint" />
            <mxPoint x="45" y="345" as="targetPoint" />
          </mxGeometry>
        </mxCell>
        <mxCell id="XeMGvkbNSDONiZZ8YMkS-60" value="Response {user, chats}" style="text;html=1;resizable=0;labelBackgroundColor=default;align=center;verticalAlign=middle;fontStyle=1;fontColor=#3a414a;fontSize=10.8;" parent="XeMGvkbNSDONiZZ8YMkS-59" vertex="1">
          <mxGeometry relative="1" as="geometry">
            <mxPoint as="offset" />
          </mxGeometry>
        </mxCell>
        <mxCell id="XeMGvkbNSDONiZZ8YMkS-61" value="" style="group;dropTarget=0;pointerEvents=0;" parent="1" vertex="1">
          <mxGeometry y="600" width="486" height="360" as="geometry" />
        </mxCell>
        <mxCell id="XeMGvkbNSDONiZZ8YMkS-62" value="Frontend" style="html=1;overflow=block;blockSpacing=1;whiteSpace=wrap;fontSize=13;spacing=3.8;rounded=1;absoluteArcSize=1;arcSize=12;strokeWidth=NaN;lucidId=L6ybjjx-sQxs;" parent="XeMGvkbNSDONiZZ8YMkS-61" vertex="1">
          <mxGeometry width="90" height="75" as="geometry" />
        </mxCell>
        <mxCell id="XeMGvkbNSDONiZZ8YMkS-63" value="Frontend" style="html=1;overflow=block;blockSpacing=1;whiteSpace=wrap;fontSize=13;spacing=3.8;rounded=1;absoluteArcSize=1;arcSize=12;strokeWidth=NaN;lucidId=L6ybSyezkYs.;" parent="XeMGvkbNSDONiZZ8YMkS-61" vertex="1">
          <mxGeometry y="285" width="90" height="75" as="geometry" />
        </mxCell>
        <mxCell id="XeMGvkbNSDONiZZ8YMkS-64" value="Backend Routes" style="html=1;overflow=block;blockSpacing=1;whiteSpace=wrap;fontSize=13;spacing=3.8;rounded=1;absoluteArcSize=1;arcSize=12;strokeWidth=NaN;lucidId=L6yb0RgY9O00;" parent="XeMGvkbNSDONiZZ8YMkS-61" vertex="1">
          <mxGeometry x="180" width="119" height="75" as="geometry" />
        </mxCell>
        <mxCell id="XeMGvkbNSDONiZZ8YMkS-65" value="Backend Routes" style="html=1;overflow=block;blockSpacing=1;whiteSpace=wrap;fontSize=13;spacing=3.8;rounded=1;absoluteArcSize=1;arcSize=12;strokeWidth=NaN;lucidId=L6ybND4CXL9n;" parent="XeMGvkbNSDONiZZ8YMkS-61" vertex="1">
          <mxGeometry x="180" y="285" width="119" height="75" as="geometry" />
        </mxCell>
        <mxCell id="XeMGvkbNSDONiZZ8YMkS-66" value="DB Service" style="html=1;overflow=block;blockSpacing=1;whiteSpace=wrap;fontSize=13;spacing=3.8;rounded=1;absoluteArcSize=1;arcSize=12;strokeWidth=NaN;lucidId=L6yb1RA.MY_w;" parent="XeMGvkbNSDONiZZ8YMkS-61" vertex="1">
          <mxGeometry x="389" width="97" height="75" as="geometry" />
        </mxCell>
        <mxCell id="XeMGvkbNSDONiZZ8YMkS-67" value="DB Service" style="html=1;overflow=block;blockSpacing=1;whiteSpace=wrap;fontSize=13;spacing=3.8;rounded=1;absoluteArcSize=1;arcSize=12;strokeWidth=NaN;lucidId=L6ybBsInb.IX;" parent="XeMGvkbNSDONiZZ8YMkS-61" vertex="1">
          <mxGeometry x="389" y="285" width="97" height="75" as="geometry" />
        </mxCell>
        <mxCell id="XeMGvkbNSDONiZZ8YMkS-68" value="" style="html=1;jettySize=18;whiteSpace=wrap;fontSize=13;strokeColor=#3a414a;strokeOpacity=100;dashed=1;fixDash=1;strokeWidth=0.8;rounded=0;startArrow=none;endArrow=none;exitX=0.5;exitY=1;exitPerimeter=0;entryX=0.5;entryY=0;entryPerimeter=0;lucidId=L6yb_DRo-Czd;" parent="XeMGvkbNSDONiZZ8YMkS-61" source="XeMGvkbNSDONiZZ8YMkS-62" target="XeMGvkbNSDONiZZ8YMkS-63" edge="1">
          <mxGeometry width="100" height="100" relative="1" as="geometry">
            <Array as="points" />
          </mxGeometry>
        </mxCell>
        <mxCell id="XeMGvkbNSDONiZZ8YMkS-69" value="" style="html=1;jettySize=18;whiteSpace=wrap;fontSize=13;strokeColor=#3a414a;strokeOpacity=100;dashed=1;fixDash=1;strokeWidth=0.8;rounded=0;startArrow=none;endArrow=none;exitX=0.5;exitY=1;exitPerimeter=0;entryX=0.5;entryY=0;entryPerimeter=0;lucidId=L6ybTg5Rx_qG;" parent="XeMGvkbNSDONiZZ8YMkS-61" source="XeMGvkbNSDONiZZ8YMkS-64" target="XeMGvkbNSDONiZZ8YMkS-65" edge="1">
          <mxGeometry width="100" height="100" relative="1" as="geometry">
            <Array as="points" />
          </mxGeometry>
        </mxCell>
        <mxCell id="XeMGvkbNSDONiZZ8YMkS-70" value="" style="html=1;jettySize=18;whiteSpace=wrap;fontSize=13;strokeColor=#3a414a;strokeOpacity=100;dashed=1;fixDash=1;strokeWidth=0.8;rounded=0;startArrow=none;endArrow=none;exitX=0.5;exitY=1;exitPerimeter=0;entryX=0.5;entryY=0;entryPerimeter=0;lucidId=L6ybup9YuIks;" parent="XeMGvkbNSDONiZZ8YMkS-61" source="XeMGvkbNSDONiZZ8YMkS-66" target="XeMGvkbNSDONiZZ8YMkS-67" edge="1">
          <mxGeometry width="100" height="100" relative="1" as="geometry">
            <Array as="points" />
          </mxGeometry>
        </mxCell>
        <mxCell id="XeMGvkbNSDONiZZ8YMkS-71" value="" style="html=1;jettySize=18;whiteSpace=wrap;fontSize=13;strokeColor=#3a414a;strokeOpacity=100;strokeWidth=0.8;rounded=0;startArrow=none;endArrow=block;endFill=1;lucidId=L6ybJQl4YDTp;" parent="XeMGvkbNSDONiZZ8YMkS-61" edge="1">
          <mxGeometry width="100" height="100" relative="1" as="geometry">
            <Array as="points" />
            <mxPoint x="45" y="120" as="sourcePoint" />
            <mxPoint x="239" y="120" as="targetPoint" />
          </mxGeometry>
        </mxCell>
        <mxCell id="XeMGvkbNSDONiZZ8YMkS-72" value="POST (&quot;/users/adduser&quot;, username)" style="text;html=1;resizable=0;labelBackgroundColor=default;align=center;verticalAlign=middle;fontStyle=1;fontColor=#3a414a;fontSize=10.8;" parent="XeMGvkbNSDONiZZ8YMkS-71" vertex="1">
          <mxGeometry relative="1" as="geometry">
            <mxPoint as="offset" />
          </mxGeometry>
        </mxCell>
        <mxCell id="XeMGvkbNSDONiZZ8YMkS-73" value="" style="html=1;jettySize=18;whiteSpace=wrap;fontSize=13;strokeColor=#3a414a;strokeOpacity=100;strokeWidth=0.8;rounded=0;startArrow=none;endArrow=block;endFill=1;lucidId=L6yb9i0hwE63;" parent="XeMGvkbNSDONiZZ8YMkS-61" edge="1">
          <mxGeometry width="100" height="100" relative="1" as="geometry">
            <Array as="points" />
            <mxPoint x="239" y="165" as="sourcePoint" />
            <mxPoint x="437" y="165" as="targetPoint" />
          </mxGeometry>
        </mxCell>
        <mxCell id="XeMGvkbNSDONiZZ8YMkS-74" value="create_user_async(username)" style="text;html=1;resizable=0;labelBackgroundColor=default;align=center;verticalAlign=middle;fontStyle=1;fontColor=#3a414a;fontSize=10.8;" parent="XeMGvkbNSDONiZZ8YMkS-73" vertex="1">
          <mxGeometry relative="1" as="geometry">
            <mxPoint as="offset" />
          </mxGeometry>
        </mxCell>
        <mxCell id="XeMGvkbNSDONiZZ8YMkS-75" value="" style="html=1;jettySize=18;whiteSpace=wrap;fontSize=13;strokeColor=#3a414a;strokeOpacity=100;dashed=1;fixDash=1;strokeWidth=0.8;rounded=0;startArrow=none;endArrow=block;endFill=1;lucidId=L6ybJ3QoaUe_;" parent="XeMGvkbNSDONiZZ8YMkS-61" edge="1">
          <mxGeometry width="100" height="100" relative="1" as="geometry">
            <Array as="points" />
            <mxPoint x="437" y="210" as="sourcePoint" />
            <mxPoint x="239" y="210" as="targetPoint" />
          </mxGeometry>
        </mxCell>
        <mxCell id="XeMGvkbNSDONiZZ8YMkS-76" value="user object" style="text;html=1;resizable=0;labelBackgroundColor=default;align=center;verticalAlign=middle;fontStyle=1;fontColor=#3a414a;fontSize=10.8;" parent="XeMGvkbNSDONiZZ8YMkS-75" vertex="1">
          <mxGeometry relative="1" as="geometry">
            <mxPoint as="offset" />
          </mxGeometry>
        </mxCell>
        <mxCell id="XeMGvkbNSDONiZZ8YMkS-77" value="" style="html=1;jettySize=18;whiteSpace=wrap;fontSize=13;strokeColor=#3a414a;strokeOpacity=100;dashed=1;fixDash=1;strokeWidth=0.8;rounded=0;startArrow=none;endArrow=block;endFill=1;lucidId=L6ybTCRwhI2b;" parent="XeMGvkbNSDONiZZ8YMkS-61" edge="1">
          <mxGeometry width="100" height="100" relative="1" as="geometry">
            <Array as="points" />
            <mxPoint x="239" y="255" as="sourcePoint" />
            <mxPoint x="45" y="255" as="targetPoint" />
          </mxGeometry>
        </mxCell>
        <mxCell id="XeMGvkbNSDONiZZ8YMkS-78" value="Response {user, chats}" style="text;html=1;resizable=0;labelBackgroundColor=default;align=center;verticalAlign=middle;fontStyle=1;fontColor=#3a414a;fontSize=10.8;" parent="XeMGvkbNSDONiZZ8YMkS-77" vertex="1">
          <mxGeometry relative="1" as="geometry">
            <mxPoint as="offset" />
          </mxGeometry>
        </mxCell>
        <mxCell id="XeMGvkbNSDONiZZ8YMkS-138" value="" style="edgeStyle=orthogonalEdgeStyle;rounded=0;orthogonalLoop=1;jettySize=auto;html=1;" parent="1" source="XeMGvkbNSDONiZZ8YMkS-122" target="XeMGvkbNSDONiZZ8YMkS-133" edge="1">
          <mxGeometry relative="1" as="geometry" />
        </mxCell>
        <mxCell id="XeMGvkbNSDONiZZ8YMkS-122" value="Chat" style="swimlane;fontStyle=0;childLayout=stackLayout;horizontal=1;startSize=26;fillColor=none;horizontalStack=0;resizeParent=1;resizeParentMax=0;resizeLast=0;collapsible=1;marginBottom=0;whiteSpace=wrap;html=1;" parent="1" vertex="1">
          <mxGeometry x="-840" y="220" width="160" height="130" as="geometry">
            <mxRectangle x="-800" y="40" width="70" height="30" as="alternateBounds" />
          </mxGeometry>
        </mxCell>
        <mxCell id="XeMGvkbNSDONiZZ8YMkS-123" value="+ id: Str" style="text;strokeColor=none;fillColor=none;align=left;verticalAlign=top;spacingLeft=4;spacingRight=4;overflow=hidden;rotatable=0;points=[[0,0.5],[1,0.5]];portConstraint=eastwest;whiteSpace=wrap;html=1;" parent="XeMGvkbNSDONiZZ8YMkS-122" vertex="1">
          <mxGeometry y="26" width="160" height="26" as="geometry" />
        </mxCell>
        <mxCell id="XeMGvkbNSDONiZZ8YMkS-124" value="+ user_id: Str" style="text;strokeColor=none;fillColor=none;align=left;verticalAlign=top;spacingLeft=4;spacingRight=4;overflow=hidden;rotatable=0;points=[[0,0.5],[1,0.5]];portConstraint=eastwest;whiteSpace=wrap;html=1;" parent="XeMGvkbNSDONiZZ8YMkS-122" vertex="1">
          <mxGeometry y="52" width="160" height="26" as="geometry" />
        </mxCell>
        <mxCell id="XeMGvkbNSDONiZZ8YMkS-131" value="+ messages: List(Message)" style="text;strokeColor=none;fillColor=none;align=left;verticalAlign=top;spacingLeft=4;spacingRight=4;overflow=hidden;rotatable=0;points=[[0,0.5],[1,0.5]];portConstraint=eastwest;whiteSpace=wrap;html=1;" parent="XeMGvkbNSDONiZZ8YMkS-122" vertex="1">
          <mxGeometry y="78" width="160" height="26" as="geometry" />
        </mxCell>
        <mxCell id="XeMGvkbNSDONiZZ8YMkS-132" value="+ doc_ids: List(Str)" style="text;strokeColor=none;fillColor=none;align=left;verticalAlign=top;spacingLeft=4;spacingRight=4;overflow=hidden;rotatable=0;points=[[0,0.5],[1,0.5]];portConstraint=eastwest;whiteSpace=wrap;html=1;" parent="XeMGvkbNSDONiZZ8YMkS-122" vertex="1">
          <mxGeometry y="104" width="160" height="26" as="geometry" />
        </mxCell>
        <mxCell id="XeMGvkbNSDONiZZ8YMkS-133" value="Message" style="swimlane;fontStyle=0;childLayout=stackLayout;horizontal=1;startSize=26;fillColor=none;horizontalStack=0;resizeParent=1;resizeParentMax=0;resizeLast=0;collapsible=1;marginBottom=0;whiteSpace=wrap;html=1;" parent="1" vertex="1">
          <mxGeometry x="-840" y="430" width="160" height="130" as="geometry">
            <mxRectangle x="-800" y="40" width="70" height="30" as="alternateBounds" />
          </mxGeometry>
        </mxCell>
        <mxCell id="XeMGvkbNSDONiZZ8YMkS-134" value="+ id: Str" style="text;strokeColor=none;fillColor=none;align=left;verticalAlign=top;spacingLeft=4;spacingRight=4;overflow=hidden;rotatable=0;points=[[0,0.5],[1,0.5]];portConstraint=eastwest;whiteSpace=wrap;html=1;" parent="XeMGvkbNSDONiZZ8YMkS-133" vertex="1">
          <mxGeometry y="26" width="160" height="26" as="geometry" />
        </mxCell>
        <mxCell id="XeMGvkbNSDONiZZ8YMkS-135" value="+ content: Str" style="text;strokeColor=none;fillColor=none;align=left;verticalAlign=top;spacingLeft=4;spacingRight=4;overflow=hidden;rotatable=0;points=[[0,0.5],[1,0.5]];portConstraint=eastwest;whiteSpace=wrap;html=1;" parent="XeMGvkbNSDONiZZ8YMkS-133" vertex="1">
          <mxGeometry y="52" width="160" height="26" as="geometry" />
        </mxCell>
        <mxCell id="XeMGvkbNSDONiZZ8YMkS-136" value="+ timestamp: Datetime" style="text;strokeColor=none;fillColor=none;align=left;verticalAlign=top;spacingLeft=4;spacingRight=4;overflow=hidden;rotatable=0;points=[[0,0.5],[1,0.5]];portConstraint=eastwest;whiteSpace=wrap;html=1;" parent="XeMGvkbNSDONiZZ8YMkS-133" vertex="1">
          <mxGeometry y="78" width="160" height="26" as="geometry" />
        </mxCell>
        <mxCell id="XeMGvkbNSDONiZZ8YMkS-137" value="+ is_user: Bool" style="text;strokeColor=none;fillColor=none;align=left;verticalAlign=top;spacingLeft=4;spacingRight=4;overflow=hidden;rotatable=0;points=[[0,0.5],[1,0.5]];portConstraint=eastwest;whiteSpace=wrap;html=1;" parent="XeMGvkbNSDONiZZ8YMkS-133" vertex="1">
          <mxGeometry y="104" width="160" height="26" as="geometry" />
        </mxCell>
        <mxCell id="XeMGvkbNSDONiZZ8YMkS-149" value="" style="edgeStyle=orthogonalEdgeStyle;rounded=0;orthogonalLoop=1;jettySize=auto;html=1;" parent="1" source="XeMGvkbNSDONiZZ8YMkS-141" target="XeMGvkbNSDONiZZ8YMkS-145" edge="1">
          <mxGeometry relative="1" as="geometry" />
        </mxCell>
        <mxCell id="XeMGvkbNSDONiZZ8YMkS-141" value="User" style="swimlane;fontStyle=0;childLayout=stackLayout;horizontal=1;startSize=26;fillColor=none;horizontalStack=0;resizeParent=1;resizeParentMax=0;resizeLast=0;collapsible=1;marginBottom=0;whiteSpace=wrap;html=1;" parent="1" vertex="1">
          <mxGeometry x="-600" y="220" width="200" height="104" as="geometry" />
        </mxCell>
        <mxCell id="XeMGvkbNSDONiZZ8YMkS-142" value="+ id: Str" style="text;strokeColor=none;fillColor=none;align=left;verticalAlign=top;spacingLeft=4;spacingRight=4;overflow=hidden;rotatable=0;points=[[0,0.5],[1,0.5]];portConstraint=eastwest;whiteSpace=wrap;html=1;" parent="XeMGvkbNSDONiZZ8YMkS-141" vertex="1">
          <mxGeometry y="26" width="200" height="26" as="geometry" />
        </mxCell>
        <mxCell id="XeMGvkbNSDONiZZ8YMkS-143" value="+ username: Str" style="text;strokeColor=none;fillColor=none;align=left;verticalAlign=top;spacingLeft=4;spacingRight=4;overflow=hidden;rotatable=0;points=[[0,0.5],[1,0.5]];portConstraint=eastwest;whiteSpace=wrap;html=1;" parent="XeMGvkbNSDONiZZ8YMkS-141" vertex="1">
          <mxGeometry y="52" width="200" height="26" as="geometry" />
        </mxCell>
        <mxCell id="XeMGvkbNSDONiZZ8YMkS-144" value="+ documents: List(Documents)" style="text;strokeColor=none;fillColor=none;align=left;verticalAlign=top;spacingLeft=4;spacingRight=4;overflow=hidden;rotatable=0;points=[[0,0.5],[1,0.5]];portConstraint=eastwest;whiteSpace=wrap;html=1;" parent="XeMGvkbNSDONiZZ8YMkS-141" vertex="1">
          <mxGeometry y="78" width="200" height="26" as="geometry" />
        </mxCell>
        <mxCell id="XeMGvkbNSDONiZZ8YMkS-164" value="" style="edgeStyle=orthogonalEdgeStyle;rounded=0;orthogonalLoop=1;jettySize=auto;html=1;" parent="1" source="XeMGvkbNSDONiZZ8YMkS-145" target="XeMGvkbNSDONiZZ8YMkS-155" edge="1">
          <mxGeometry relative="1" as="geometry" />
        </mxCell>
        <mxCell id="XeMGvkbNSDONiZZ8YMkS-145" value="Document" style="swimlane;fontStyle=0;childLayout=stackLayout;horizontal=1;startSize=26;fillColor=none;horizontalStack=0;resizeParent=1;resizeParentMax=0;resizeLast=0;collapsible=1;marginBottom=0;whiteSpace=wrap;html=1;" parent="1" vertex="1">
          <mxGeometry x="-600" y="404" width="200" height="234" as="geometry" />
        </mxCell>
        <mxCell id="XeMGvkbNSDONiZZ8YMkS-146" value="+ id: Str" style="text;strokeColor=none;fillColor=none;align=left;verticalAlign=top;spacingLeft=4;spacingRight=4;overflow=hidden;rotatable=0;points=[[0,0.5],[1,0.5]];portConstraint=eastwest;whiteSpace=wrap;html=1;" parent="XeMGvkbNSDONiZZ8YMkS-145" vertex="1">
          <mxGeometry y="26" width="200" height="26" as="geometry" />
        </mxCell>
        <mxCell id="XeMGvkbNSDONiZZ8YMkS-147" value="+ doc_id: Str" style="text;strokeColor=none;fillColor=none;align=left;verticalAlign=top;spacingLeft=4;spacingRight=4;overflow=hidden;rotatable=0;points=[[0,0.5],[1,0.5]];portConstraint=eastwest;whiteSpace=wrap;html=1;" parent="XeMGvkbNSDONiZZ8YMkS-145" vertex="1">
          <mxGeometry y="52" width="200" height="26" as="geometry" />
        </mxCell>
        <mxCell id="XeMGvkbNSDONiZZ8YMkS-148" value="+ name: Str" style="text;strokeColor=none;fillColor=none;align=left;verticalAlign=top;spacingLeft=4;spacingRight=4;overflow=hidden;rotatable=0;points=[[0,0.5],[1,0.5]];portConstraint=eastwest;whiteSpace=wrap;html=1;" parent="XeMGvkbNSDONiZZ8YMkS-145" vertex="1">
          <mxGeometry y="78" width="200" height="26" as="geometry" />
        </mxCell>
        <mxCell id="XeMGvkbNSDONiZZ8YMkS-150" value="+ timestamp: Datetime" style="text;strokeColor=none;fillColor=none;align=left;verticalAlign=top;spacingLeft=4;spacingRight=4;overflow=hidden;rotatable=0;points=[[0,0.5],[1,0.5]];portConstraint=eastwest;whiteSpace=wrap;html=1;" parent="XeMGvkbNSDONiZZ8YMkS-145" vertex="1">
          <mxGeometry y="104" width="200" height="26" as="geometry" />
        </mxCell>
        <mxCell id="XeMGvkbNSDONiZZ8YMkS-151" value="+ doclink: Str" style="text;strokeColor=none;fillColor=none;align=left;verticalAlign=top;spacingLeft=4;spacingRight=4;overflow=hidden;rotatable=0;points=[[0,0.5],[1,0.5]];portConstraint=eastwest;whiteSpace=wrap;html=1;" parent="XeMGvkbNSDONiZZ8YMkS-145" vertex="1">
          <mxGeometry y="130" width="200" height="26" as="geometry" />
        </mxCell>
        <mxCell id="XeMGvkbNSDONiZZ8YMkS-152" value="+ summary: Str" style="text;strokeColor=none;fillColor=none;align=left;verticalAlign=top;spacingLeft=4;spacingRight=4;overflow=hidden;rotatable=0;points=[[0,0.5],[1,0.5]];portConstraint=eastwest;whiteSpace=wrap;html=1;" parent="XeMGvkbNSDONiZZ8YMkS-145" vertex="1">
          <mxGeometry y="156" width="200" height="26" as="geometry" />
        </mxCell>
        <mxCell id="XeMGvkbNSDONiZZ8YMkS-153" value="+ imgList: List(Image)" style="text;strokeColor=none;fillColor=none;align=left;verticalAlign=top;spacingLeft=4;spacingRight=4;overflow=hidden;rotatable=0;points=[[0,0.5],[1,0.5]];portConstraint=eastwest;whiteSpace=wrap;html=1;" parent="XeMGvkbNSDONiZZ8YMkS-145" vertex="1">
          <mxGeometry y="182" width="200" height="26" as="geometry" />
        </mxCell>
        <mxCell id="XeMGvkbNSDONiZZ8YMkS-154" value="+ textList: List(TextChunk)" style="text;strokeColor=none;fillColor=none;align=left;verticalAlign=top;spacingLeft=4;spacingRight=4;overflow=hidden;rotatable=0;points=[[0,0.5],[1,0.5]];portConstraint=eastwest;whiteSpace=wrap;html=1;" parent="XeMGvkbNSDONiZZ8YMkS-145" vertex="1">
          <mxGeometry y="208" width="200" height="26" as="geometry" />
        </mxCell>
        <mxCell id="XeMGvkbNSDONiZZ8YMkS-155" value="TextChunk" style="swimlane;fontStyle=0;childLayout=stackLayout;horizontal=1;startSize=26;fillColor=none;horizontalStack=0;resizeParent=1;resizeParentMax=0;resizeLast=0;collapsible=1;marginBottom=0;whiteSpace=wrap;html=1;" parent="1" vertex="1">
          <mxGeometry x="-600" y="718" width="200" height="130" as="geometry" />
        </mxCell>
        <mxCell id="XeMGvkbNSDONiZZ8YMkS-156" value="+ id: Str" style="text;strokeColor=none;fillColor=none;align=left;verticalAlign=top;spacingLeft=4;spacingRight=4;overflow=hidden;rotatable=0;points=[[0,0.5],[1,0.5]];portConstraint=eastwest;whiteSpace=wrap;html=1;" parent="XeMGvkbNSDONiZZ8YMkS-155" vertex="1">
          <mxGeometry y="26" width="200" height="26" as="geometry" />
        </mxCell>
        <mxCell id="XeMGvkbNSDONiZZ8YMkS-157" value="+ text: Str" style="text;strokeColor=none;fillColor=none;align=left;verticalAlign=top;spacingLeft=4;spacingRight=4;overflow=hidden;rotatable=0;points=[[0,0.5],[1,0.5]];portConstraint=eastwest;whiteSpace=wrap;html=1;" parent="XeMGvkbNSDONiZZ8YMkS-155" vertex="1">
          <mxGeometry y="52" width="200" height="26" as="geometry" />
        </mxCell>
        <mxCell id="XeMGvkbNSDONiZZ8YMkS-158" value="+ page: Int" style="text;strokeColor=none;fillColor=none;align=left;verticalAlign=top;spacingLeft=4;spacingRight=4;overflow=hidden;rotatable=0;points=[[0,0.5],[1,0.5]];portConstraint=eastwest;whiteSpace=wrap;html=1;" parent="XeMGvkbNSDONiZZ8YMkS-155" vertex="1">
          <mxGeometry y="78" width="200" height="26" as="geometry" />
        </mxCell>
        <mxCell id="XeMGvkbNSDONiZZ8YMkS-159" value="+ formula: List(Str)" style="text;strokeColor=none;fillColor=none;align=left;verticalAlign=top;spacingLeft=4;spacingRight=4;overflow=hidden;rotatable=0;points=[[0,0.5],[1,0.5]];portConstraint=eastwest;whiteSpace=wrap;html=1;" parent="XeMGvkbNSDONiZZ8YMkS-155" vertex="1">
          <mxGeometry y="104" width="200" height="26" as="geometry" />
        </mxCell>
        <mxCell id="XeMGvkbNSDONiZZ8YMkS-166" value="Image" style="swimlane;fontStyle=0;childLayout=stackLayout;horizontal=1;startSize=26;fillColor=none;horizontalStack=0;resizeParent=1;resizeParentMax=0;resizeLast=0;collapsible=1;marginBottom=0;whiteSpace=wrap;html=1;" parent="1" vertex="1">
          <mxGeometry x="-380" y="718" width="200" height="182" as="geometry" />
        </mxCell>
        <mxCell id="XeMGvkbNSDONiZZ8YMkS-167" value="+ id: Str" style="text;strokeColor=none;fillColor=none;align=left;verticalAlign=top;spacingLeft=4;spacingRight=4;overflow=hidden;rotatable=0;points=[[0,0.5],[1,0.5]];portConstraint=eastwest;whiteSpace=wrap;html=1;" parent="XeMGvkbNSDONiZZ8YMkS-166" vertex="1">
          <mxGeometry y="26" width="200" height="26" as="geometry" />
        </mxCell>
        <mxCell id="XeMGvkbNSDONiZZ8YMkS-168" value="+ link: Str" style="text;strokeColor=none;fillColor=none;align=left;verticalAlign=top;spacingLeft=4;spacingRight=4;overflow=hidden;rotatable=0;points=[[0,0.5],[1,0.5]];portConstraint=eastwest;whiteSpace=wrap;html=1;" parent="XeMGvkbNSDONiZZ8YMkS-166" vertex="1">
          <mxGeometry y="52" width="200" height="26" as="geometry" />
        </mxCell>
        <mxCell id="XeMGvkbNSDONiZZ8YMkS-169" value="+ page: Int" style="text;strokeColor=none;fillColor=none;align=left;verticalAlign=top;spacingLeft=4;spacingRight=4;overflow=hidden;rotatable=0;points=[[0,0.5],[1,0.5]];portConstraint=eastwest;whiteSpace=wrap;html=1;" parent="XeMGvkbNSDONiZZ8YMkS-166" vertex="1">
          <mxGeometry y="78" width="200" height="26" as="geometry" />
        </mxCell>
        <mxCell id="XeMGvkbNSDONiZZ8YMkS-170" value="+ type: Str" style="text;strokeColor=none;fillColor=none;align=left;verticalAlign=top;spacingLeft=4;spacingRight=4;overflow=hidden;rotatable=0;points=[[0,0.5],[1,0.5]];portConstraint=eastwest;whiteSpace=wrap;html=1;" parent="XeMGvkbNSDONiZZ8YMkS-166" vertex="1">
          <mxGeometry y="104" width="200" height="26" as="geometry" />
        </mxCell>
        <mxCell id="XeMGvkbNSDONiZZ8YMkS-173" value="+ imgtext: Str" style="text;strokeColor=none;fillColor=none;align=left;verticalAlign=top;spacingLeft=4;spacingRight=4;overflow=hidden;rotatable=0;points=[[0,0.5],[1,0.5]];portConstraint=eastwest;whiteSpace=wrap;html=1;" parent="XeMGvkbNSDONiZZ8YMkS-166" vertex="1">
          <mxGeometry y="130" width="200" height="26" as="geometry" />
        </mxCell>
        <mxCell id="XeMGvkbNSDONiZZ8YMkS-174" value="+ llm_output: Str" style="text;strokeColor=none;fillColor=none;align=left;verticalAlign=top;spacingLeft=4;spacingRight=4;overflow=hidden;rotatable=0;points=[[0,0.5],[1,0.5]];portConstraint=eastwest;whiteSpace=wrap;html=1;" parent="XeMGvkbNSDONiZZ8YMkS-166" vertex="1">
          <mxGeometry y="156" width="200" height="26" as="geometry" />
        </mxCell>
        <mxCell id="XeMGvkbNSDONiZZ8YMkS-172" style="edgeStyle=orthogonalEdgeStyle;rounded=0;orthogonalLoop=1;jettySize=auto;html=1;exitX=1;exitY=0.5;exitDx=0;exitDy=0;entryX=0.5;entryY=0;entryDx=0;entryDy=0;" parent="1" source="XeMGvkbNSDONiZZ8YMkS-154" target="XeMGvkbNSDONiZZ8YMkS-166" edge="1">
          <mxGeometry relative="1" as="geometry" />
        </mxCell>
        <mxCell id="XeMGvkbNSDONiZZ8YMkS-175" value="" style="endArrow=none;dashed=1;html=1;rounded=0;entryX=0;entryY=0.5;entryDx=0;entryDy=0;exitX=1;exitY=0.5;exitDx=0;exitDy=0;" parent="1" source="XeMGvkbNSDONiZZ8YMkS-124" target="XeMGvkbNSDONiZZ8YMkS-143" edge="1">
          <mxGeometry width="50" height="50" relative="1" as="geometry">
            <mxPoint x="-870" y="590" as="sourcePoint" />
            <mxPoint x="-820" y="540" as="targetPoint" />
          </mxGeometry>
        </mxCell>
        <mxCell id="XeMGvkbNSDONiZZ8YMkS-176" value="connected via username" style="text;html=1;align=center;verticalAlign=middle;whiteSpace=wrap;rounded=0;" parent="1" vertex="1">
          <mxGeometry x="-670" y="250" width="60" height="30" as="geometry" />
        </mxCell>
        <mxCell id="2zSI3QnhG-ClcebVK40D-4" value="Odyss Backend" style="swimlane;html=1;childLayout=stackLayout;resizeParent=1;resizeParentMax=0;horizontal=0;startSize=20;horizontalStack=0;whiteSpace=wrap;" vertex="1" parent="1">
          <mxGeometry y="1320" width="1360" height="480" as="geometry" />
        </mxCell>
        <mxCell id="2zSI3QnhG-ClcebVK40D-6" value="Doc Manager" style="swimlane;html=1;startSize=20;horizontal=0;" vertex="1" parent="2zSI3QnhG-ClcebVK40D-4">
          <mxGeometry x="20" width="1340" height="120" as="geometry" />
        </mxCell>
        <mxCell id="2zSI3QnhG-ClcebVK40D-22" value="&lt;font style=&quot;font-size: 11px;&quot;&gt;Generate new doc object&lt;/font&gt;" style="points=[[0.25,0,0],[0.5,0,0],[0.75,0,0],[1,0.25,0],[1,0.5,0],[1,0.75,0],[0.75,1,0],[0.5,1,0],[0.25,1,0],[0,0.75,0],[0,0.5,0],[0,0.25,0]];shape=mxgraph.bpmn.task;whiteSpace=wrap;rectStyle=rounded;size=10;html=1;container=1;expand=0;collapsible=0;taskMarker=abstract;" vertex="1" parent="2zSI3QnhG-ClcebVK40D-6">
          <mxGeometry x="240" y="35" width="80" height="50" as="geometry" />
        </mxCell>
        <mxCell id="2zSI3QnhG-ClcebVK40D-27" value="" style="edgeStyle=elbowEdgeStyle;fontSize=12;html=1;endFill=0;startFill=0;endSize=6;startSize=6;endArrow=openThin;startArrow=none;rounded=0;entryX=0;entryY=0.5;entryDx=0;entryDy=0;entryPerimeter=0;" edge="1" parent="2zSI3QnhG-ClcebVK40D-22" target="2zSI3QnhG-ClcebVK40D-22">
          <mxGeometry width="160" relative="1" as="geometry">
            <mxPoint x="-70" y="24.710000000000036" as="sourcePoint" />
            <mxPoint x="-10" y="25" as="targetPoint" />
          </mxGeometry>
        </mxCell>
        <mxCell id="2zSI3QnhG-ClcebVK40D-26" value="&lt;span style=&quot;font-size: 11px;&quot;&gt;Save document in OneDrive&lt;/span&gt;" style="points=[[0.25,0,0],[0.5,0,0],[0.75,0,0],[1,0.25,0],[1,0.5,0],[1,0.75,0],[0.75,1,0],[0.5,1,0],[0.25,1,0],[0,0.75,0],[0,0.5,0],[0,0.25,0]];shape=mxgraph.bpmn.task;whiteSpace=wrap;rectStyle=rounded;size=10;html=1;container=1;expand=0;collapsible=0;taskMarker=send;" vertex="1" parent="2zSI3QnhG-ClcebVK40D-6">
          <mxGeometry x="90" y="35" width="80" height="50" as="geometry" />
        </mxCell>
        <mxCell id="2zSI3QnhG-ClcebVK40D-43" value="&lt;font style=&quot;font-size: 11px;&quot;&gt;Build Prompt for summary&lt;/font&gt;" style="points=[[0.25,0,0],[0.5,0,0],[0.75,0,0],[1,0.25,0],[1,0.5,0],[1,0.75,0],[0.75,1,0],[0.5,1,0],[0.25,1,0],[0,0.75,0],[0,0.5,0],[0,0.25,0]];shape=mxgraph.bpmn.task;whiteSpace=wrap;rectStyle=rounded;size=10;html=1;container=1;expand=0;collapsible=0;taskMarker=abstract;" vertex="1" parent="2zSI3QnhG-ClcebVK40D-6">
          <mxGeometry x="780" y="25" width="80" height="50" as="geometry" />
        </mxCell>
        <mxCell id="2zSI3QnhG-ClcebVK40D-44" value="&lt;font style=&quot;font-size: 11px;&quot;&gt;Send prompt to LLM&lt;/font&gt;" style="points=[[0.25,0,0],[0.5,0,0],[0.75,0,0],[1,0.25,0],[1,0.5,0],[1,0.75,0],[0.75,1,0],[0.5,1,0],[0.25,1,0],[0,0.75,0],[0,0.5,0],[0,0.25,0]];shape=mxgraph.bpmn.task;whiteSpace=wrap;rectStyle=rounded;size=10;html=1;container=1;expand=0;collapsible=0;taskMarker=abstract;" vertex="1" parent="2zSI3QnhG-ClcebVK40D-6">
          <mxGeometry x="900" y="25" width="80" height="50" as="geometry" />
        </mxCell>
        <mxCell id="2zSI3QnhG-ClcebVK40D-45" value="&lt;span style=&quot;font-size: 11px;&quot;&gt;Add summary to doc object&lt;/span&gt;" style="points=[[0.25,0,0],[0.5,0,0],[0.75,0,0],[1,0.25,0],[1,0.5,0],[1,0.75,0],[0.75,1,0],[0.5,1,0],[0.25,1,0],[0,0.75,0],[0,0.5,0],[0,0.25,0]];shape=mxgraph.bpmn.task;whiteSpace=wrap;rectStyle=rounded;size=10;html=1;container=1;expand=0;collapsible=0;taskMarker=abstract;" vertex="1" parent="2zSI3QnhG-ClcebVK40D-6">
          <mxGeometry x="1020" y="25" width="80" height="50" as="geometry" />
        </mxCell>
        <mxCell id="2zSI3QnhG-ClcebVK40D-54" style="edgeStyle=orthogonalEdgeStyle;rounded=0;orthogonalLoop=1;jettySize=auto;html=1;exitX=1;exitY=0.5;exitDx=0;exitDy=0;exitPerimeter=0;entryX=0;entryY=0.5;entryDx=0;entryDy=0;entryPerimeter=0;" edge="1" parent="2zSI3QnhG-ClcebVK40D-6" source="2zSI3QnhG-ClcebVK40D-43" target="2zSI3QnhG-ClcebVK40D-44">
          <mxGeometry relative="1" as="geometry" />
        </mxCell>
        <mxCell id="2zSI3QnhG-ClcebVK40D-55" style="edgeStyle=orthogonalEdgeStyle;rounded=0;orthogonalLoop=1;jettySize=auto;html=1;exitX=1;exitY=0.5;exitDx=0;exitDy=0;exitPerimeter=0;entryX=0;entryY=0.5;entryDx=0;entryDy=0;entryPerimeter=0;" edge="1" parent="2zSI3QnhG-ClcebVK40D-6" source="2zSI3QnhG-ClcebVK40D-44" target="2zSI3QnhG-ClcebVK40D-45">
          <mxGeometry relative="1" as="geometry" />
        </mxCell>
        <mxCell id="2zSI3QnhG-ClcebVK40D-7" value="OCR Service" style="swimlane;html=1;startSize=20;horizontal=0;" vertex="1" parent="2zSI3QnhG-ClcebVK40D-4">
          <mxGeometry x="20" y="120" width="1340" height="120" as="geometry" />
        </mxCell>
        <mxCell id="2zSI3QnhG-ClcebVK40D-31" value="&lt;font style=&quot;font-size: 11px;&quot;&gt;Extract information&amp;nbsp;&lt;/font&gt;" style="points=[[0.25,0,0],[0.5,0,0],[0.75,0,0],[1,0.25,0],[1,0.5,0],[1,0.75,0],[0.75,1,0],[0.5,1,0],[0.25,1,0],[0,0.75,0],[0,0.5,0],[0,0.25,0]];shape=mxgraph.bpmn.task;whiteSpace=wrap;rectStyle=rounded;size=10;html=1;container=1;expand=0;collapsible=0;taskMarker=abstract;" vertex="1" parent="2zSI3QnhG-ClcebVK40D-7">
          <mxGeometry x="321" y="35" width="80" height="50" as="geometry" />
        </mxCell>
        <mxCell id="2zSI3QnhG-ClcebVK40D-33" value="&lt;font style=&quot;font-size: 11px;&quot;&gt;Save in doc object&lt;/font&gt;" style="points=[[0.25,0,0],[0.5,0,0],[0.75,0,0],[1,0.25,0],[1,0.5,0],[1,0.75,0],[0.75,1,0],[0.5,1,0],[0.25,1,0],[0,0.75,0],[0,0.5,0],[0,0.25,0]];shape=mxgraph.bpmn.task;whiteSpace=wrap;rectStyle=rounded;size=10;html=1;container=1;expand=0;collapsible=0;taskMarker=abstract;" vertex="1" parent="2zSI3QnhG-ClcebVK40D-7">
          <mxGeometry x="480" y="35" width="80" height="50" as="geometry" />
        </mxCell>
        <mxCell id="2zSI3QnhG-ClcebVK40D-50" style="edgeStyle=orthogonalEdgeStyle;rounded=0;orthogonalLoop=1;jettySize=auto;html=1;exitX=1;exitY=0.5;exitDx=0;exitDy=0;exitPerimeter=0;entryX=0;entryY=0.5;entryDx=0;entryDy=0;entryPerimeter=0;" edge="1" parent="2zSI3QnhG-ClcebVK40D-7" source="2zSI3QnhG-ClcebVK40D-31" target="2zSI3QnhG-ClcebVK40D-33">
          <mxGeometry relative="1" as="geometry" />
        </mxCell>
        <mxCell id="2zSI3QnhG-ClcebVK40D-13" value="SimSearch Service" style="swimlane;html=1;startSize=20;horizontal=0;" vertex="1" parent="2zSI3QnhG-ClcebVK40D-4">
          <mxGeometry x="20" y="240" width="1340" height="120" as="geometry" />
        </mxCell>
        <mxCell id="2zSI3QnhG-ClcebVK40D-35" value="&lt;font style=&quot;font-size: 11px;&quot;&gt;Create embeddings&lt;/font&gt;" style="points=[[0.25,0,0],[0.5,0,0],[0.75,0,0],[1,0.25,0],[1,0.5,0],[1,0.75,0],[0.75,1,0],[0.5,1,0],[0.25,1,0],[0,0.75,0],[0,0.5,0],[0,0.25,0]];shape=mxgraph.bpmn.task;whiteSpace=wrap;rectStyle=rounded;size=10;html=1;container=1;expand=0;collapsible=0;taskMarker=abstract;" vertex="1" parent="2zSI3QnhG-ClcebVK40D-13">
          <mxGeometry x="560" y="35" width="80" height="50" as="geometry" />
        </mxCell>
        <mxCell id="2zSI3QnhG-ClcebVK40D-38" value="Create Embeddings with TEI" style="points=[[0.25,0,0],[0.5,0,0],[0.75,0,0],[1,0.25,0],[1,0.5,0],[1,0.75,0],[0.75,1,0],[0.5,1,0],[0.25,1,0],[0,0.75,0],[0,0.5,0],[0,0.25,0]];shape=mxgraph.bpmn.task;whiteSpace=wrap;rectStyle=rounded;size=10;html=1;container=1;expand=0;collapsible=0;taskMarker=receive;" vertex="1" parent="2zSI3QnhG-ClcebVK40D-35">
          <mxGeometry width="80" height="50" as="geometry" />
        </mxCell>
        <mxCell id="2zSI3QnhG-ClcebVK40D-36" value="&lt;font style=&quot;font-size: 11px;&quot;&gt;Store embeddings in QDrant VectorDB&lt;/font&gt;" style="points=[[0.25,0,0],[0.5,0,0],[0.75,0,0],[1,0.25,0],[1,0.5,0],[1,0.75,0],[0.75,1,0],[0.5,1,0],[0.25,1,0],[0,0.75,0],[0,0.5,0],[0,0.25,0]];shape=mxgraph.bpmn.task;whiteSpace=wrap;rectStyle=rounded;size=10;html=1;container=1;expand=0;collapsible=0;taskMarker=abstract;" vertex="1" parent="2zSI3QnhG-ClcebVK40D-13">
          <mxGeometry x="710" y="35" width="80" height="50" as="geometry" />
        </mxCell>
        <mxCell id="2zSI3QnhG-ClcebVK40D-52" style="edgeStyle=orthogonalEdgeStyle;rounded=0;orthogonalLoop=1;jettySize=auto;html=1;exitX=1;exitY=0.5;exitDx=0;exitDy=0;exitPerimeter=0;entryX=0;entryY=0.5;entryDx=0;entryDy=0;entryPerimeter=0;" edge="1" parent="2zSI3QnhG-ClcebVK40D-13" source="2zSI3QnhG-ClcebVK40D-38" target="2zSI3QnhG-ClcebVK40D-36">
          <mxGeometry relative="1" as="geometry" />
        </mxCell>
        <mxCell id="2zSI3QnhG-ClcebVK40D-14" value="DB Service" style="swimlane;html=1;startSize=20;horizontal=0;" vertex="1" parent="2zSI3QnhG-ClcebVK40D-4">
          <mxGeometry x="20" y="360" width="1340" height="120" as="geometry" />
        </mxCell>
        <mxCell id="2zSI3QnhG-ClcebVK40D-37" value="" style="edgeStyle=elbowEdgeStyle;fontSize=12;html=1;endFill=0;startFill=0;endSize=6;startSize=6;dashed=1;dashPattern=1 4;endArrow=openThin;startArrow=none;rounded=0;exitX=0;exitY=0;exitDx=40;exitDy=15;exitPerimeter=0;entryX=0.5;entryY=1;entryDx=0;entryDy=0;entryPerimeter=0;" edge="1" parent="2zSI3QnhG-ClcebVK40D-14">
          <mxGeometry width="160" relative="1" as="geometry">
            <mxPoint x="270" y="178" as="sourcePoint" />
            <mxPoint x="570" y="-35" as="targetPoint" />
            <Array as="points">
              <mxPoint x="570" y="30" />
            </Array>
          </mxGeometry>
        </mxCell>
        <mxCell id="2zSI3QnhG-ClcebVK40D-46" value="&lt;span style=&quot;font-size: 11px;&quot;&gt;Save doc object in MongoDB&lt;/span&gt;" style="points=[[0.25,0,0],[0.5,0,0],[0.75,0,0],[1,0.25,0],[1,0.5,0],[1,0.75,0],[0.75,1,0],[0.5,1,0],[0.25,1,0],[0,0.75,0],[0,0.5,0],[0,0.25,0]];shape=mxgraph.bpmn.task;whiteSpace=wrap;rectStyle=rounded;size=10;html=1;container=1;expand=0;collapsible=0;taskMarker=abstract;" vertex="1" parent="2zSI3QnhG-ClcebVK40D-14">
          <mxGeometry x="1100" y="35" width="80" height="50" as="geometry" />
        </mxCell>
        <mxCell id="2zSI3QnhG-ClcebVK40D-49" style="edgeStyle=orthogonalEdgeStyle;rounded=0;orthogonalLoop=1;jettySize=auto;html=1;exitX=1;exitY=0.5;exitDx=0;exitDy=0;exitPerimeter=0;entryX=0.5;entryY=0;entryDx=0;entryDy=0;entryPerimeter=0;" edge="1" parent="2zSI3QnhG-ClcebVK40D-4" source="2zSI3QnhG-ClcebVK40D-22" target="2zSI3QnhG-ClcebVK40D-31">
          <mxGeometry relative="1" as="geometry" />
        </mxCell>
        <mxCell id="2zSI3QnhG-ClcebVK40D-51" style="edgeStyle=orthogonalEdgeStyle;rounded=0;orthogonalLoop=1;jettySize=auto;html=1;exitX=1;exitY=0.5;exitDx=0;exitDy=0;exitPerimeter=0;entryX=0.5;entryY=0;entryDx=0;entryDy=0;entryPerimeter=0;" edge="1" parent="2zSI3QnhG-ClcebVK40D-4" source="2zSI3QnhG-ClcebVK40D-33" target="2zSI3QnhG-ClcebVK40D-38">
          <mxGeometry relative="1" as="geometry" />
        </mxCell>
        <mxCell id="2zSI3QnhG-ClcebVK40D-53" style="edgeStyle=orthogonalEdgeStyle;rounded=0;orthogonalLoop=1;jettySize=auto;html=1;exitX=0.5;exitY=0;exitDx=0;exitDy=0;exitPerimeter=0;entryX=0;entryY=0.5;entryDx=0;entryDy=0;entryPerimeter=0;" edge="1" parent="2zSI3QnhG-ClcebVK40D-4" source="2zSI3QnhG-ClcebVK40D-36" target="2zSI3QnhG-ClcebVK40D-43">
          <mxGeometry relative="1" as="geometry" />
        </mxCell>
        <mxCell id="2zSI3QnhG-ClcebVK40D-56" style="edgeStyle=orthogonalEdgeStyle;rounded=0;orthogonalLoop=1;jettySize=auto;html=1;exitX=1;exitY=0.5;exitDx=0;exitDy=0;exitPerimeter=0;entryX=0.5;entryY=0;entryDx=0;entryDy=0;entryPerimeter=0;" edge="1" parent="2zSI3QnhG-ClcebVK40D-4" source="2zSI3QnhG-ClcebVK40D-45" target="2zSI3QnhG-ClcebVK40D-46">
          <mxGeometry relative="1" as="geometry" />
        </mxCell>
        <mxCell id="2zSI3QnhG-ClcebVK40D-8" value="Frontend" style="swimlane;html=1;startSize=20;fontStyle=0;collapsible=0;horizontal=0;swimlaneLine=1;swimlaneFillColor=#ffffff;strokeWidth=2;whiteSpace=wrap;" vertex="1" parent="1">
          <mxGeometry y="1180" width="1360" height="100" as="geometry" />
        </mxCell>
        <mxCell id="2zSI3QnhG-ClcebVK40D-21" value="&lt;font style=&quot;font-size: 11px;&quot;&gt;User upload a document&lt;/font&gt;" style="points=[[0.25,0,0],[0.5,0,0],[0.75,0,0],[1,0.25,0],[1,0.5,0],[1,0.75,0],[0.75,1,0],[0.5,1,0],[0.25,1,0],[0,0.75,0],[0,0.5,0],[0,0.25,0]];shape=mxgraph.bpmn.task;whiteSpace=wrap;rectStyle=rounded;size=10;html=1;container=1;expand=0;collapsible=0;taskMarker=abstract;" vertex="1" parent="2zSI3QnhG-ClcebVK40D-8">
          <mxGeometry x="30" y="25" width="80" height="50" as="geometry" />
        </mxCell>
        <mxCell id="2zSI3QnhG-ClcebVK40D-47" value="&lt;font style=&quot;font-size: 11px;&quot;&gt;Display user success&lt;/font&gt;" style="points=[[0.25,0,0],[0.5,0,0],[0.75,0,0],[1,0.25,0],[1,0.5,0],[1,0.75,0],[0.75,1,0],[0.5,1,0],[0.25,1,0],[0,0.75,0],[0,0.5,0],[0,0.25,0]];shape=mxgraph.bpmn.task;whiteSpace=wrap;rectStyle=rounded;size=10;html=1;container=1;expand=0;collapsible=0;taskMarker=abstract;" vertex="1" parent="2zSI3QnhG-ClcebVK40D-8">
          <mxGeometry x="1260" y="25" width="80" height="50" as="geometry" />
        </mxCell>
        <mxCell id="2zSI3QnhG-ClcebVK40D-24" value="Document" style="shape=mxgraph.bpmn.data;labelPosition=center;verticalLabelPosition=bottom;align=center;verticalAlign=top;size=15;html=1;" vertex="1" parent="1">
          <mxGeometry x="280" y="1820" width="40" height="60" as="geometry" />
        </mxCell>
        <mxCell id="2zSI3QnhG-ClcebVK40D-30" value="" style="edgeStyle=elbowEdgeStyle;fontSize=12;html=1;endFill=0;startFill=0;endSize=6;startSize=6;dashed=1;dashPattern=1 4;endArrow=openThin;startArrow=none;rounded=0;exitX=0.5;exitY=1;exitDx=0;exitDy=0;exitPerimeter=0;entryX=0.5;entryY=0;entryDx=0;entryDy=0;entryPerimeter=0;" edge="1" parent="1" source="2zSI3QnhG-ClcebVK40D-22" target="2zSI3QnhG-ClcebVK40D-24">
          <mxGeometry width="160" relative="1" as="geometry">
            <mxPoint x="200" y="1520" as="sourcePoint" />
            <mxPoint x="300" y="1790" as="targetPoint" />
          </mxGeometry>
        </mxCell>
        <mxCell id="2zSI3QnhG-ClcebVK40D-34" value="" style="edgeStyle=elbowEdgeStyle;fontSize=12;html=1;endFill=0;startFill=0;endSize=6;startSize=6;dashed=1;dashPattern=1 4;endArrow=openThin;startArrow=none;rounded=0;exitX=0;exitY=0;exitDx=40;exitDy=15;exitPerimeter=0;entryX=0.365;entryY=1.043;entryDx=0;entryDy=0;entryPerimeter=0;" edge="1" parent="1" source="2zSI3QnhG-ClcebVK40D-24" target="2zSI3QnhG-ClcebVK40D-33">
          <mxGeometry width="160" relative="1" as="geometry">
            <mxPoint x="270" y="1620" as="sourcePoint" />
            <mxPoint x="530" y="1600" as="targetPoint" />
            <Array as="points">
              <mxPoint x="530" y="1690" />
            </Array>
          </mxGeometry>
        </mxCell>
        <mxCell id="2zSI3QnhG-ClcebVK40D-39" value="Embeddings" style="shape=mxgraph.bpmn.data;labelPosition=center;verticalLabelPosition=bottom;align=center;verticalAlign=top;size=15;html=1;" vertex="1" parent="1">
          <mxGeometry x="640" y="1920" width="40" height="60" as="geometry" />
        </mxCell>
        <mxCell id="2zSI3QnhG-ClcebVK40D-41" value="" style="edgeStyle=elbowEdgeStyle;fontSize=12;html=1;endFill=0;startFill=0;endSize=6;startSize=6;dashed=1;dashPattern=1 4;endArrow=openThin;startArrow=none;rounded=0;exitX=0.75;exitY=0.9;exitDx=0;exitDy=0;exitPerimeter=0;entryX=0;entryY=0;entryDx=12.5;entryDy=0;entryPerimeter=0;" edge="1" parent="1" source="2zSI3QnhG-ClcebVK40D-38" target="2zSI3QnhG-ClcebVK40D-39">
          <mxGeometry width="160" relative="1" as="geometry">
            <mxPoint x="640" y="1650" as="sourcePoint" />
            <mxPoint x="800" y="1650" as="targetPoint" />
          </mxGeometry>
        </mxCell>
        <mxCell id="2zSI3QnhG-ClcebVK40D-42" value="" style="edgeStyle=elbowEdgeStyle;fontSize=12;html=1;endFill=0;startFill=0;endSize=6;startSize=6;dashed=1;dashPattern=1 4;endArrow=none;startArrow=none;rounded=0;entryX=0.5;entryY=1;entryDx=0;entryDy=0;entryPerimeter=0;exitX=0;exitY=0;exitDx=40;exitDy=37.5;exitPerimeter=0;" edge="1" parent="1" source="2zSI3QnhG-ClcebVK40D-39" target="2zSI3QnhG-ClcebVK40D-36">
          <mxGeometry width="160" relative="1" as="geometry">
            <mxPoint x="670" y="1860" as="sourcePoint" />
            <mxPoint x="830" y="1860" as="targetPoint" />
            <Array as="points">
              <mxPoint x="770" y="1750" />
            </Array>
          </mxGeometry>
        </mxCell>
        <mxCell id="2zSI3QnhG-ClcebVK40D-48" style="edgeStyle=orthogonalEdgeStyle;rounded=0;orthogonalLoop=1;jettySize=auto;html=1;exitX=1;exitY=0.5;exitDx=0;exitDy=0;exitPerimeter=0;entryX=0.5;entryY=0;entryDx=0;entryDy=0;entryPerimeter=0;" edge="1" parent="1" source="2zSI3QnhG-ClcebVK40D-21" target="2zSI3QnhG-ClcebVK40D-26">
          <mxGeometry relative="1" as="geometry" />
        </mxCell>
        <mxCell id="2zSI3QnhG-ClcebVK40D-57" style="edgeStyle=orthogonalEdgeStyle;rounded=0;orthogonalLoop=1;jettySize=auto;html=1;exitX=1;exitY=0.5;exitDx=0;exitDy=0;exitPerimeter=0;entryX=0.5;entryY=1;entryDx=0;entryDy=0;entryPerimeter=0;" edge="1" parent="1" source="2zSI3QnhG-ClcebVK40D-46" target="2zSI3QnhG-ClcebVK40D-47">
          <mxGeometry relative="1" as="geometry" />
        </mxCell>
        <mxCell id="2zSI3QnhG-ClcebVK40D-58" value="" style="edgeStyle=elbowEdgeStyle;fontSize=12;html=1;endFill=0;startFill=0;endSize=6;startSize=6;dashed=1;dashPattern=1 4;endArrow=none;startArrow=none;rounded=0;entryX=0.5;entryY=1;entryDx=0;entryDy=0;entryPerimeter=0;" edge="1" parent="1" target="2zSI3QnhG-ClcebVK40D-45">
          <mxGeometry width="160" relative="1" as="geometry">
            <mxPoint x="320" y="1880" as="sourcePoint" />
            <mxPoint x="480" y="1880" as="targetPoint" />
            <Array as="points">
              <mxPoint x="1080" y="1670" />
            </Array>
          </mxGeometry>
        </mxCell>
        <mxCell id="2zSI3QnhG-ClcebVK40D-59" style="edgeStyle=orthogonalEdgeStyle;rounded=0;orthogonalLoop=1;jettySize=auto;html=1;exitX=0.5;exitY=1;exitDx=0;exitDy=0;exitPerimeter=0;entryX=0.5;entryY=1;entryDx=0;entryDy=0;entryPerimeter=0;dashed=1;endArrow=none;endFill=0;" edge="1" parent="1" source="2zSI3QnhG-ClcebVK40D-24" target="2zSI3QnhG-ClcebVK40D-46">
          <mxGeometry relative="1" as="geometry" />
        </mxCell>
        <mxCell id="2zSI3QnhG-ClcebVK40D-64" value="Odyss Backend" style="swimlane;html=1;childLayout=stackLayout;resizeParent=1;resizeParentMax=0;horizontal=0;startSize=20;horizontalStack=0;whiteSpace=wrap;" vertex="1" parent="1">
          <mxGeometry y="2200" width="1140" height="360" as="geometry" />
        </mxCell>
        <mxCell id="2zSI3QnhG-ClcebVK40D-65" value="Message Manager" style="swimlane;html=1;startSize=20;horizontal=0;" vertex="1" parent="2zSI3QnhG-ClcebVK40D-64">
          <mxGeometry x="20" width="1120" height="120" as="geometry" />
        </mxCell>
        <mxCell id="2zSI3QnhG-ClcebVK40D-69" value="Message received&amp;nbsp;&lt;div&gt;from Websocket&lt;/div&gt;" style="points=[[0.145,0.145,0],[0.5,0,0],[0.855,0.145,0],[1,0.5,0],[0.855,0.855,0],[0.5,1,0],[0.145,0.855,0],[0,0.5,0]];shape=mxgraph.bpmn.event;html=1;verticalLabelPosition=bottom;labelBackgroundColor=#ffffff;verticalAlign=top;align=center;perimeter=ellipsePerimeter;outlineConnect=0;aspect=fixed;outline=standard;symbol=general;" vertex="1" parent="2zSI3QnhG-ClcebVK40D-65">
          <mxGeometry x="60" y="45" width="30" height="30" as="geometry" />
        </mxCell>
        <mxCell id="2zSI3QnhG-ClcebVK40D-75" value="&lt;font style=&quot;font-size: 11px;&quot;&gt;Build prompt&lt;/font&gt;" style="points=[[0.25,0,0],[0.5,0,0],[0.75,0,0],[1,0.25,0],[1,0.5,0],[1,0.75,0],[0.75,1,0],[0.5,1,0],[0.25,1,0],[0,0.75,0],[0,0.5,0],[0,0.25,0]];shape=mxgraph.bpmn.task;whiteSpace=wrap;rectStyle=rounded;size=10;html=1;container=1;expand=0;collapsible=0;taskMarker=abstract;" vertex="1" parent="2zSI3QnhG-ClcebVK40D-65">
          <mxGeometry x="420" y="35" width="80" height="50" as="geometry" />
        </mxCell>
        <mxCell id="2zSI3QnhG-ClcebVK40D-76" value="&lt;span style=&quot;font-size: 11px;&quot;&gt;Send prompt to LLM&lt;/span&gt;" style="points=[[0.25,0,0],[0.5,0,0],[0.75,0,0],[1,0.25,0],[1,0.5,0],[1,0.75,0],[0.75,1,0],[0.5,1,0],[0.25,1,0],[0,0.75,0],[0,0.5,0],[0,0.25,0]];shape=mxgraph.bpmn.task;whiteSpace=wrap;rectStyle=rounded;size=10;html=1;container=1;expand=0;collapsible=0;taskMarker=abstract;" vertex="1" parent="2zSI3QnhG-ClcebVK40D-65">
          <mxGeometry x="540" y="35" width="80" height="50" as="geometry" />
        </mxCell>
        <mxCell id="2zSI3QnhG-ClcebVK40D-77" value="&lt;span style=&quot;font-size: 11px;&quot;&gt;Build user answer&lt;/span&gt;" style="points=[[0.25,0,0],[0.5,0,0],[0.75,0,0],[1,0.25,0],[1,0.5,0],[1,0.75,0],[0.75,1,0],[0.5,1,0],[0.25,1,0],[0,0.75,0],[0,0.5,0],[0,0.25,0]];shape=mxgraph.bpmn.task;whiteSpace=wrap;rectStyle=rounded;size=10;html=1;container=1;expand=0;collapsible=0;taskMarker=abstract;" vertex="1" parent="2zSI3QnhG-ClcebVK40D-65">
          <mxGeometry x="660" y="35" width="80" height="50" as="geometry" />
        </mxCell>
        <mxCell id="2zSI3QnhG-ClcebVK40D-79" value="&lt;span style=&quot;font-size: 11px;&quot;&gt;Send answer&lt;/span&gt;" style="points=[[0.25,0,0],[0.5,0,0],[0.75,0,0],[1,0.25,0],[1,0.5,0],[1,0.75,0],[0.75,1,0],[0.5,1,0],[0.25,1,0],[0,0.75,0],[0,0.5,0],[0,0.25,0]];shape=mxgraph.bpmn.task;whiteSpace=wrap;rectStyle=rounded;size=10;html=1;container=1;expand=0;collapsible=0;taskMarker=abstract;" vertex="1" parent="2zSI3QnhG-ClcebVK40D-65">
          <mxGeometry x="850" y="35" width="80" height="50" as="geometry" />
        </mxCell>
        <mxCell id="2zSI3QnhG-ClcebVK40D-84" style="edgeStyle=orthogonalEdgeStyle;rounded=0;orthogonalLoop=1;jettySize=auto;html=1;exitX=1;exitY=0.5;exitDx=0;exitDy=0;exitPerimeter=0;entryX=0;entryY=0.5;entryDx=0;entryDy=0;entryPerimeter=0;" edge="1" parent="2zSI3QnhG-ClcebVK40D-65" source="2zSI3QnhG-ClcebVK40D-75" target="2zSI3QnhG-ClcebVK40D-76">
          <mxGeometry relative="1" as="geometry" />
        </mxCell>
        <mxCell id="2zSI3QnhG-ClcebVK40D-85" style="edgeStyle=orthogonalEdgeStyle;rounded=0;orthogonalLoop=1;jettySize=auto;html=1;exitX=1;exitY=0.5;exitDx=0;exitDy=0;exitPerimeter=0;entryX=0;entryY=0.5;entryDx=0;entryDy=0;entryPerimeter=0;" edge="1" parent="2zSI3QnhG-ClcebVK40D-65" source="2zSI3QnhG-ClcebVK40D-76" target="2zSI3QnhG-ClcebVK40D-77">
          <mxGeometry relative="1" as="geometry" />
        </mxCell>
        <mxCell id="2zSI3QnhG-ClcebVK40D-66" value="DB Service" style="swimlane;html=1;startSize=20;horizontal=0;" vertex="1" parent="2zSI3QnhG-ClcebVK40D-64">
          <mxGeometry x="20" y="120" width="1120" height="120" as="geometry" />
        </mxCell>
        <mxCell id="2zSI3QnhG-ClcebVK40D-68" value="&lt;font style=&quot;font-size: 11px;&quot;&gt;Get chat &amp;amp; user&lt;/font&gt;" style="points=[[0.25,0,0],[0.5,0,0],[0.75,0,0],[1,0.25,0],[1,0.5,0],[1,0.75,0],[0.75,1,0],[0.5,1,0],[0.25,1,0],[0,0.75,0],[0,0.5,0],[0,0.25,0]];shape=mxgraph.bpmn.task;whiteSpace=wrap;rectStyle=rounded;size=10;html=1;container=1;expand=0;collapsible=0;taskMarker=abstract;" vertex="1" parent="2zSI3QnhG-ClcebVK40D-66">
          <mxGeometry x="120" y="35" width="80" height="50" as="geometry" />
        </mxCell>
        <mxCell id="2zSI3QnhG-ClcebVK40D-67" value="SimSearch Service" style="swimlane;html=1;startSize=20;horizontal=0;" vertex="1" parent="2zSI3QnhG-ClcebVK40D-64">
          <mxGeometry x="20" y="240" width="1120" height="120" as="geometry" />
        </mxCell>
        <mxCell id="2zSI3QnhG-ClcebVK40D-73" value="&lt;font style=&quot;font-size: 11px;&quot;&gt;Create embeddings for question with TEI&lt;/font&gt;" style="points=[[0.25,0,0],[0.5,0,0],[0.75,0,0],[1,0.25,0],[1,0.5,0],[1,0.75,0],[0.75,1,0],[0.5,1,0],[0.25,1,0],[0,0.75,0],[0,0.5,0],[0,0.25,0]];shape=mxgraph.bpmn.task;whiteSpace=wrap;rectStyle=rounded;size=10;html=1;container=1;expand=0;collapsible=0;taskMarker=abstract;" vertex="1" parent="2zSI3QnhG-ClcebVK40D-67">
          <mxGeometry x="200" y="35" width="80" height="50" as="geometry" />
        </mxCell>
        <mxCell id="2zSI3QnhG-ClcebVK40D-74" value="&lt;font style=&quot;font-size: 11px;&quot;&gt;Find 5 similar chunks in Qdrant&lt;/font&gt;" style="points=[[0.25,0,0],[0.5,0,0],[0.75,0,0],[1,0.25,0],[1,0.5,0],[1,0.75,0],[0.75,1,0],[0.5,1,0],[0.25,1,0],[0,0.75,0],[0,0.5,0],[0,0.25,0]];shape=mxgraph.bpmn.task;whiteSpace=wrap;rectStyle=rounded;size=10;html=1;container=1;expand=0;collapsible=0;taskMarker=abstract;" vertex="1" parent="2zSI3QnhG-ClcebVK40D-67">
          <mxGeometry x="340" y="35" width="80" height="50" as="geometry" />
        </mxCell>
        <mxCell id="2zSI3QnhG-ClcebVK40D-78" value="&lt;span style=&quot;font-size: 11px;&quot;&gt;Save user message &amp;amp; and LLM answer&lt;/span&gt;" style="points=[[0.25,0,0],[0.5,0,0],[0.75,0,0],[1,0.25,0],[1,0.5,0],[1,0.75,0],[0.75,1,0],[0.5,1,0],[0.25,1,0],[0,0.75,0],[0,0.5,0],[0,0.25,0]];shape=mxgraph.bpmn.task;whiteSpace=wrap;rectStyle=rounded;size=10;html=1;container=1;expand=0;collapsible=0;taskMarker=abstract;" vertex="1" parent="2zSI3QnhG-ClcebVK40D-67">
          <mxGeometry x="740" y="35" width="80" height="50" as="geometry" />
        </mxCell>
        <mxCell id="2zSI3QnhG-ClcebVK40D-82" style="edgeStyle=orthogonalEdgeStyle;rounded=0;orthogonalLoop=1;jettySize=auto;html=1;exitX=1;exitY=0.5;exitDx=0;exitDy=0;exitPerimeter=0;entryX=0;entryY=0.5;entryDx=0;entryDy=0;entryPerimeter=0;" edge="1" parent="2zSI3QnhG-ClcebVK40D-67" source="2zSI3QnhG-ClcebVK40D-73" target="2zSI3QnhG-ClcebVK40D-74">
          <mxGeometry relative="1" as="geometry" />
        </mxCell>
        <mxCell id="2zSI3QnhG-ClcebVK40D-80" style="edgeStyle=orthogonalEdgeStyle;rounded=0;orthogonalLoop=1;jettySize=auto;html=1;exitX=1;exitY=0.5;exitDx=0;exitDy=0;exitPerimeter=0;entryX=0.5;entryY=0;entryDx=0;entryDy=0;entryPerimeter=0;" edge="1" parent="2zSI3QnhG-ClcebVK40D-64" source="2zSI3QnhG-ClcebVK40D-69" target="2zSI3QnhG-ClcebVK40D-68">
          <mxGeometry relative="1" as="geometry" />
        </mxCell>
        <mxCell id="2zSI3QnhG-ClcebVK40D-81" style="edgeStyle=orthogonalEdgeStyle;rounded=0;orthogonalLoop=1;jettySize=auto;html=1;exitX=1;exitY=0.5;exitDx=0;exitDy=0;exitPerimeter=0;entryX=0.5;entryY=0;entryDx=0;entryDy=0;entryPerimeter=0;" edge="1" parent="2zSI3QnhG-ClcebVK40D-64" source="2zSI3QnhG-ClcebVK40D-68" target="2zSI3QnhG-ClcebVK40D-73">
          <mxGeometry relative="1" as="geometry" />
        </mxCell>
        <mxCell id="2zSI3QnhG-ClcebVK40D-83" style="edgeStyle=orthogonalEdgeStyle;rounded=0;orthogonalLoop=1;jettySize=auto;html=1;exitX=1;exitY=0.5;exitDx=0;exitDy=0;exitPerimeter=0;entryX=0.5;entryY=1;entryDx=0;entryDy=0;entryPerimeter=0;" edge="1" parent="2zSI3QnhG-ClcebVK40D-64" source="2zSI3QnhG-ClcebVK40D-74" target="2zSI3QnhG-ClcebVK40D-75">
          <mxGeometry relative="1" as="geometry" />
        </mxCell>
        <mxCell id="2zSI3QnhG-ClcebVK40D-86" style="edgeStyle=orthogonalEdgeStyle;rounded=0;orthogonalLoop=1;jettySize=auto;html=1;exitX=0.5;exitY=1;exitDx=0;exitDy=0;exitPerimeter=0;entryX=0;entryY=0.5;entryDx=0;entryDy=0;entryPerimeter=0;" edge="1" parent="2zSI3QnhG-ClcebVK40D-64" source="2zSI3QnhG-ClcebVK40D-77" target="2zSI3QnhG-ClcebVK40D-78">
          <mxGeometry relative="1" as="geometry" />
        </mxCell>
        <mxCell id="2zSI3QnhG-ClcebVK40D-87" style="edgeStyle=orthogonalEdgeStyle;rounded=0;orthogonalLoop=1;jettySize=auto;html=1;exitX=1;exitY=0.5;exitDx=0;exitDy=0;exitPerimeter=0;entryX=0.5;entryY=1;entryDx=0;entryDy=0;entryPerimeter=0;" edge="1" parent="2zSI3QnhG-ClcebVK40D-64" source="2zSI3QnhG-ClcebVK40D-78" target="2zSI3QnhG-ClcebVK40D-79">
          <mxGeometry relative="1" as="geometry" />
        </mxCell>
        <mxCell id="2zSI3QnhG-ClcebVK40D-70" value="Chat" style="shape=mxgraph.bpmn.data;labelPosition=center;verticalLabelPosition=bottom;align=center;verticalAlign=top;size=15;html=1;" vertex="1" parent="1">
          <mxGeometry x="140" y="2580" width="40" height="60" as="geometry" />
        </mxCell>
        <mxCell id="2zSI3QnhG-ClcebVK40D-71" value="User" style="shape=mxgraph.bpmn.data;labelPosition=center;verticalLabelPosition=bottom;align=center;verticalAlign=top;size=15;html=1;" vertex="1" parent="1">
          <mxGeometry x="180" y="2680" width="40" height="60" as="geometry" />
        </mxCell>
        <mxCell id="2zSI3QnhG-ClcebVK40D-89" style="edgeStyle=orthogonalEdgeStyle;rounded=0;orthogonalLoop=1;jettySize=auto;html=1;exitX=0.25;exitY=1;exitDx=0;exitDy=0;exitPerimeter=0;dashed=1;endArrow=none;endFill=0;" edge="1" parent="1" source="2zSI3QnhG-ClcebVK40D-68" target="2zSI3QnhG-ClcebVK40D-70">
          <mxGeometry relative="1" as="geometry" />
        </mxCell>
        <mxCell id="2zSI3QnhG-ClcebVK40D-90" style="edgeStyle=orthogonalEdgeStyle;rounded=0;orthogonalLoop=1;jettySize=auto;html=1;exitX=0.75;exitY=1;exitDx=0;exitDy=0;exitPerimeter=0;entryX=0.5;entryY=0;entryDx=0;entryDy=0;entryPerimeter=0;dashed=1;endArrow=none;endFill=0;" edge="1" parent="1" source="2zSI3QnhG-ClcebVK40D-68" target="2zSI3QnhG-ClcebVK40D-71">
          <mxGeometry relative="1" as="geometry" />
        </mxCell>
        <mxCell id="2zSI3QnhG-ClcebVK40D-91" style="edgeStyle=orthogonalEdgeStyle;rounded=0;orthogonalLoop=1;jettySize=auto;html=1;exitX=0;exitY=0;exitDx=40;exitDy=15;exitPerimeter=0;entryX=0.25;entryY=1;entryDx=0;entryDy=0;entryPerimeter=0;dashed=1;endArrow=none;endFill=0;" edge="1" parent="1" source="2zSI3QnhG-ClcebVK40D-71" target="2zSI3QnhG-ClcebVK40D-74">
          <mxGeometry relative="1" as="geometry" />
        </mxCell>
        <mxCell id="2zSI3QnhG-ClcebVK40D-92" style="edgeStyle=orthogonalEdgeStyle;rounded=0;orthogonalLoop=1;jettySize=auto;html=1;exitX=0;exitY=0;exitDx=40;exitDy=37.5;exitPerimeter=0;entryX=0.5;entryY=1;entryDx=0;entryDy=0;entryPerimeter=0;dashed=1;endArrow=none;endFill=0;" edge="1" parent="1" source="2zSI3QnhG-ClcebVK40D-70" target="2zSI3QnhG-ClcebVK40D-78">
          <mxGeometry relative="1" as="geometry" />
        </mxCell>
        <mxCell id="2zSI3QnhG-ClcebVK40D-93" style="edgeStyle=orthogonalEdgeStyle;rounded=0;orthogonalLoop=1;jettySize=auto;html=1;exitX=0;exitY=0;exitDx=40;exitDy=37.5;exitPerimeter=0;entryX=0.75;entryY=1;entryDx=0;entryDy=0;entryPerimeter=0;endArrow=none;endFill=0;dashed=1;" edge="1" parent="1" source="2zSI3QnhG-ClcebVK40D-71" target="2zSI3QnhG-ClcebVK40D-75">
          <mxGeometry relative="1" as="geometry" />
        </mxCell>
      </root>
    </mxGraphModel>
  </diagram>
</mxfile>
